<svg width="23" height="32" viewBox="0 0 23 32" fill="none" xmlns="http://www.w3.org/2000/svg">
<path d="M18.4034 8.09091C18.2244 6.57955 17.4986 5.40625 16.2259 4.57102C14.9531 3.73579 13.392 3.31818 11.5426 3.31818C10.1903 3.31818 9.0071 3.53693 7.9929 3.97443C6.98864 4.41193 6.20313 5.01349 5.63636 5.77912C5.07955 6.54474 4.80114 7.41477 4.80114 8.3892C4.80114 9.20454 4.99503 9.90554 5.38281 10.4922C5.78054 11.0689 6.28764 11.5511 6.90412 11.9389C7.5206 12.3168 8.1669 12.63 8.84304 12.8786C9.51918 13.1172 10.1406 13.3111 10.7074 13.4602L13.8097 14.2955C14.6051 14.5043 15.4901 14.7926 16.4645 15.1605C17.4489 15.5284 18.3885 16.0305 19.2834 16.6669C20.1882 17.2933 20.9339 18.0987 21.5206 19.0831C22.1072 20.0675 22.4006 21.2756 22.4006 22.7074C22.4006 24.358 21.968 25.8494 21.103 27.1818C20.2479 28.5142 18.995 29.5732 17.3445 30.3587C15.7038 31.1442 13.7102 31.5369 11.3636 31.5369C9.17614 31.5369 7.28196 31.1839 5.68111 30.478C4.0902 29.772 2.83736 28.7876 1.92259 27.5249C1.01776 26.2621 0.505682 24.7955 0.386364 23.125H4.20455C4.30398 24.2784 4.69176 25.233 5.3679 25.9886C6.05398 26.7344 6.91903 27.2912 7.96307 27.6591C9.01705 28.017 10.1506 28.196 11.3636 28.196C12.7756 28.196 14.0433 27.9673 15.1669 27.5099C16.2905 27.0426 17.1804 26.3963 17.8366 25.571C18.4929 24.7358 18.821 23.7614 18.821 22.6477C18.821 21.6335 18.5376 20.8082 17.9709 20.1719C17.4041 19.5355 16.6584 19.0185 15.7337 18.6207C14.8089 18.223 13.8097 17.875 12.7358 17.5767L8.97727 16.5028C6.59091 15.8168 4.7017 14.8374 3.30966 13.5646C1.91761 12.2919 1.22159 10.6264 1.22159 8.56818C1.22159 6.85795 1.68395 5.36648 2.60866 4.09375C3.54332 2.81108 4.79616 1.81676 6.36719 1.11079C7.94815 0.394885 9.71307 0.0369307 11.6619 0.0369307C13.6307 0.0369307 15.3807 0.389914 16.9119 1.09588C18.4432 1.7919 19.6563 2.74645 20.5511 3.95952C21.456 5.17258 21.9332 6.54971 21.983 8.09091H18.4034Z" fill="black"/>
</svg>
