<svg width="24" height="24" viewBox="0 0 24 24" fill="none" xmlns="http://www.w3.org/2000/svg">
<path d="M9.58896 7.50248C9.03894 7.45248 8.55253 7.85782 8.50253 8.40783C8.45252 8.95785 8.85787 9.44426 9.40788 9.49426L9.58896 7.50248ZM14.9985 8.99837L15.9944 8.90784C15.9506 8.42709 15.5697 8.04619 15.089 8.00248L14.9985 8.99837ZM14.5026 14.5889C14.5526 15.139 15.039 15.5443 15.589 15.4943C16.139 15.4443 16.5444 14.9579 16.4944 14.4079L14.5026 14.5889ZM8.29131 14.2913C7.90079 14.6818 7.90079 15.315 8.29131 15.7055C8.68183 16.096 9.315 16.096 9.70552 15.7055L8.29131 14.2913ZM9.40788 9.49426L14.9079 9.99427L15.089 8.00248L9.58896 7.50248L9.40788 9.49426ZM14.0026 9.08891L14.5026 14.5889L16.4944 14.4079L15.9944 8.90784L14.0026 9.08891ZM14.2914 8.29127L8.29131 14.2913L9.70552 15.7055L15.7056 9.70548L14.2914 8.29127ZM20.5984 11.9984C20.5984 16.7481 16.7481 20.5984 11.9984 20.5984V22.5984C17.8527 22.5984 22.5984 17.8527 22.5984 11.9984H20.5984ZM11.9984 20.5984C7.24879 20.5984 3.39844 16.7481 3.39844 11.9984H1.39844C1.39844 17.8527 6.14422 22.5984 11.9984 22.5984V20.5984ZM3.39844 11.9984C3.39844 7.24879 7.24879 3.39844 11.9984 3.39844V1.39844C6.14422 1.39844 1.39844 6.14422 1.39844 11.9984H3.39844ZM11.9984 3.39844C16.7481 3.39844 20.5984 7.24879 20.5984 11.9984H22.5984C22.5984 6.14422 17.8527 1.39844 11.9984 1.39844V3.39844Z" fill="white"/>
</svg>
