<svg width="22" height="22" viewBox="0 0 22 22" fill="none" xmlns="http://www.w3.org/2000/svg">
<path d="M22 11C22 17.0751 17.0751 22 11 22C4.92556 22 0 17.0751 0 11C0 4.92556 4.92556 0 11 0C17.0751 0 22 4.92556 22 11Z" fill="#FFCC4D"/>
<path d="M9.44578 9.66449C9.40911 9.58199 8.52972 7.64966 6.72206 7.64966C4.915 7.64966 4.035 9.58199 3.99834 9.66449C3.94211 9.79099 3.97878 9.93888 4.08633 10.0257C4.1945 10.113 4.34728 10.1155 4.45911 10.0342C4.46706 10.0287 5.23034 9.48299 6.72206 9.48299C8.20461 9.48299 8.96728 10.0214 8.98439 10.0336C9.03817 10.0739 9.10233 10.0941 9.1665 10.0941C9.23372 10.0941 9.30156 10.0715 9.35656 10.0275C9.46595 9.94071 9.502 9.7916 9.44578 9.66449Z" fill="#66471B"/>
<path d="M18.9444 8.24999C18.9444 10.4439 17.1661 12.2222 14.9722 12.2222C12.7783 12.2222 11 10.4439 11 8.24999C11 6.0561 12.7783 4.27777 14.9722 4.27777C17.1661 4.27777 18.9444 6.0561 18.9444 8.24999Z" fill="#F5F8FA"/>
<path d="M14.9722 9.77778C15.816 9.77778 16.5 9.09378 16.5 8.25001C16.5 7.40624 15.816 6.72223 14.9722 6.72223C14.1285 6.72223 13.4445 7.40624 13.4445 8.25001C13.4445 9.09378 14.1285 9.77778 14.9722 9.77778Z" fill="#292F33"/>
<path d="M4.27783 12.9933C4.27783 15.4157 7.0865 18.4933 11.0001 18.4933C14.9136 18.4933 17.7223 15.4377 17.7223 12.9933C17.7223 12.9933 11.4077 14.6775 4.27783 12.9933Z" fill="#66471B"/>
<path d="M11.3331 14.4252L10.6664 14.4221C8.70104 14.3769 7.33337 14.0579 7.33337 14.0579V18.3119C7.33337 20.1452 8.5556 21.9785 11 21.9785C13.4445 21.9785 14.6667 20.1452 14.6667 18.3119V14.083C13.4922 14.3238 12.3524 14.4142 11.3331 14.4252Z" fill="#E8596E"/>
<path d="M10.9994 19.46C11.1834 19.46 11.3325 19.3109 11.3325 19.1269V14.4251L10.6658 14.422V19.1269C10.6664 19.3109 10.8155 19.46 10.9994 19.46Z" fill="#DD2F45"/>
</svg>
