<svg width="25" height="25" viewBox="0 0 25 25" xmlns="http://www.w3.org/2000/svg">
<path d="M0 12.5C0 19.4036 5.59644 25 12.5 25C19.4036 25 25 19.4036 25 12.5C25 5.59644 19.4036 0 12.5 0C5.59644 0 0 5.59644 0 12.5Z"/>
<path d="M5.82494 12.6732C9.04616 10.9092 11.1941 9.74623 12.2689 9.18435C15.3375 7.58006 15.9751 7.30138 16.3907 7.29208C16.4822 7.29016 16.6865 7.31863 16.8189 7.45366C16.9307 7.56767 16.9615 7.72168 16.9762 7.82978C16.9909 7.93788 17.0092 8.18413 16.9947 8.37654C16.8284 10.5727 16.1088 15.9022 15.7428 18.3619C15.5879 19.4027 15.2829 19.7516 14.9876 19.7858C14.346 19.86 13.8587 19.2528 13.2372 18.7407C12.2647 17.9394 11.7153 17.4406 10.7713 16.6587C9.68032 15.755 10.3875 15.2584 11.0093 14.4467C11.172 14.2343 13.9992 11.002 14.0539 10.7087C14.0608 10.6721 14.0671 10.5354 14.0025 10.4632C13.9379 10.391 13.8426 10.4157 13.7738 10.4353C13.6762 10.4631 12.1226 11.7539 9.11292 14.3075C8.67193 14.6881 8.2725 14.8736 7.91462 14.8638C7.52009 14.8531 6.76117 14.5834 6.19699 14.3529C5.505 14.0702 4.95502 13.9207 5.00291 13.4405C5.02785 13.1904 5.30186 12.9347 5.82494 12.6732Z" fill="white"/>
</svg>
