<svg width="25" height="26" viewBox="0 0 25 26" xmlns="http://www.w3.org/2000/svg">
<path d="M25 12.5483C25 5.61805 19.4036 0 12.5 0C5.59644 0 0 5.61805 0 12.5483C0 19.4785 5.59644 25.0965 12.5 25.0965C19.4036 25.0965 25 19.4785 25 12.5483Z" />
<path d="M4 12.16C4 8.31233 4 6.39133 5.19 5.19C6.397 4 8.318 4 12.16 4H12.84C16.6877 4 18.6087 4 19.81 5.19C21 6.397 21 8.318 21 12.16V12.84C21 16.6877 21 18.6087 19.81 19.81C18.603 21 16.682 21 12.84 21H12.16C8.31233 21 6.39133 21 5.19 19.81C4 18.603 4 16.682 4 12.84V12.16Z"/>
<path d="M12.989 17C9.23077 17 7.08791 14.0024 7 9.00641H8.89011C8.95055 12.6701 10.3352 14.2202 11.4341 14.5404V9.00641H13.2088V12.1641C14.2912 12.0296 15.4341 10.5885 15.8187 9H17.5879C17.4437 9.82227 17.1555 10.601 16.7414 11.2876C16.3273 11.9742 15.7962 12.5539 15.1813 12.9904C15.8675 13.3886 16.4736 13.9518 16.9594 14.6429C17.4453 15.334 17.7999 16.1374 18 17H16.0495C15.6319 15.482 14.5879 14.3034 13.2088 14.1433V17H12.9945H12.989Z" fill="white"/>
</svg>
