<svg width="36" height="36" viewBox="0 0 36 36" fill="none" xmlns="http://www.w3.org/2000/svg">
<path d="M33.8242 16C33.8242 24.834 26.6582 32 17.8242 32C8.98822 32 1.82422 24.834 1.82422 16C1.82422 7.164 8.98822 0 17.8242 0C26.6582 0 33.8242 7.164 33.8242 16Z" fill="#FFCC4D"/>
<path d="M25.6849 16.1286C25.5349 15.9676 25.3109 15.9576 25.1499 16.0996C25.1169 16.1286 21.8469 18.9996 17.8239 18.9996C13.8109 18.9996 10.5309 16.1286 10.4979 16.0996C10.3359 15.9576 10.1129 15.9696 9.96286 16.1286C9.81386 16.2886 9.78086 16.5526 9.88386 16.7566C9.99186 16.9716 12.5929 21.9996 17.8239 21.9996C23.0549 21.9996 25.6569 16.9716 25.7639 16.7566C25.8669 16.5516 25.8339 16.2886 25.6849 16.1286Z" fill="#664500"/>
<path d="M13.2158 23.1534L11.6768 20.9344C11.6768 20.9344 11.1338 20.0674 10.2658 20.6094C9.39877 21.1504 9.94177 22.0184 9.94177 22.0184L11.6998 25.3984C11.6998 25.3984 11.8438 26.1664 10.7818 25.3074C10.3188 24.9334 10.5848 25.1444 10.5848 25.1444L10.1448 24.7834L4.65377 20.2754C4.65377 20.2754 3.94477 19.5274 3.29477 20.3174C2.64677 21.1084 3.51777 21.6584 3.51777 21.6584L8.71076 25.9244C8.59076 26.0444 8.22877 26.4584 8.11077 26.5874L2.55377 22.0274C2.55377 22.0274 1.84377 21.2784 1.19577 22.0684C0.545766 22.8594 1.41777 23.4094 1.41777 23.4094L6.97277 27.9714C6.86977 28.1114 6.60977 28.4474 6.51377 28.5854L1.72177 24.6514C1.72177 24.6514 1.01177 23.9034 0.363766 24.6934C-0.287234 25.4844 0.585766 26.0354 0.585766 26.0354L5.67977 30.2194C5.61577 30.3974 5.31677 30.8654 5.26977 31.0394L1.59777 28.0274C1.59777 28.0274 0.888766 27.2754 0.240766 28.0684C-0.409234 28.8594 0.462766 29.4094 0.462766 29.4094L6.39277 34.2774L6.78777 34.6034C9.40777 36.7544 13.2768 36.3744 15.4278 33.7544C17.3988 31.3514 17.2448 27.9014 15.1878 25.6854C14.4588 24.9034 13.8278 24.0324 13.2158 23.1534ZM35.4058 28.0694C34.7578 27.2764 34.0488 28.0284 34.0488 28.0284L30.3768 31.0404C30.3298 30.8664 30.0308 30.3974 29.9668 30.2204L35.0608 26.0364C35.0608 26.0364 35.9338 25.4854 35.2838 24.6944C34.6358 23.9044 33.9258 24.6524 33.9258 24.6524L29.1338 28.5864C29.0378 28.4474 28.7768 28.1114 28.6748 27.9724L34.2298 23.4104C34.2298 23.4104 35.1028 22.8604 34.4528 22.0694C33.8048 21.2794 33.0958 22.0284 33.0958 22.0284L27.5378 26.5884C27.4208 26.4594 27.0588 26.0454 26.9378 25.9254L32.1308 21.6594C32.1308 21.6594 33.0008 21.1094 32.3538 20.3184C31.7038 19.5284 30.9948 20.2764 30.9948 20.2764L25.5038 24.7844L25.0648 25.1454C25.0648 25.1454 26.0548 24.3044 24.8678 25.3084C23.6798 26.3124 23.9498 25.3994 23.9498 25.3994L25.7078 22.0194C25.7078 22.0194 26.2508 21.1514 25.3838 20.6104C24.5148 20.0684 23.9728 20.9354 23.9728 20.9354L22.4348 23.1544C21.8218 24.0334 21.1908 24.9044 20.4608 25.6874C18.4028 27.9044 18.2488 31.3534 20.2218 33.7564C22.3718 36.3764 26.2418 36.7564 28.8618 34.6054L29.2578 34.2794L35.1878 29.4114C35.1828 29.4104 36.0548 28.8604 35.4058 28.0694Z" fill="#F4900C"/>
<path d="M27.4982 10.983C27.4472 10.861 26.2132 8 23.6772 8C21.1432 8 19.9092 10.861 19.8582 10.983C19.7782 11.171 19.8302 11.389 19.9812 11.519C20.1302 11.647 20.3462 11.651 20.5042 11.531C20.5142 11.522 21.5852 10.715 23.6772 10.715C25.7562 10.715 26.8262 11.512 26.8512 11.531C26.9262 11.59 27.0162 11.62 27.1062 11.62C27.2012 11.62 27.2952 11.586 27.3732 11.521C27.5262 11.392 27.5782 11.171 27.4982 10.983ZM16.4982 10.983C16.4462 10.861 15.2132 8 12.6772 8C10.1432 8 8.90918 10.861 8.85718 10.983C8.77818 11.171 8.82918 11.389 8.98118 11.519C9.13118 11.647 9.34718 11.651 9.50418 11.531C9.51518 11.522 10.5852 10.715 12.6772 10.715C14.7572 10.715 15.8262 11.512 15.8502 11.531C15.9262 11.59 16.0152 11.62 16.1052 11.62C16.2002 11.62 16.2942 11.586 16.3722 11.521C16.5262 11.392 16.5772 11.171 16.4982 10.983Z" fill="#664500"/>
<path d="M11.0058 25.4785C11.0058 25.4785 8.41277 28.7925 11.4898 32.9385C11.7018 33.2235 12.2398 33.0845 12.0108 32.7505C11.7608 32.3865 9.26077 28.8545 11.6108 25.6935C11.6108 25.6935 11.2298 25.6465 11.0058 25.4785ZM24.5888 25.5765C24.5888 25.5765 27.1828 28.8905 24.1048 33.0365C23.8928 33.3215 23.3548 33.1825 23.5838 32.8485C23.8338 32.4845 26.3338 28.9525 23.9838 25.7915C23.9828 25.7925 24.3648 25.7455 24.5888 25.5765Z" fill="#B55005"/>
</svg>
