<svg width="25" height="26" viewBox="0 0 25 26" xmlns="http://www.w3.org/2000/svg">
<path d="M0 12.5483C0 19.4785 5.59644 25.0965 12.5 25.0965C19.4036 25.0965 25 19.4785 25 12.5483C25 5.61805 19.4036 0 12.5 0C5.59644 0 0 5.61805 0 12.5483Z"/>
<path fill-rule="evenodd" clip-rule="evenodd" d="M17.2 7.725C16.075 6.6 14.575 6 13 6C9.7 6 7 8.7 7 12C7 13.05 7.3 14.1 7.825 15L7 18L10.15 17.175C11.05 17.625 12.025 17.925 13 17.925C16.3 17.925 19 15.225 19 11.925C19 10.35 18.325 8.85 17.2 7.725ZM13 16.95C12.1 16.95 11.2 16.725 10.45 16.275L10.3 16.2L8.425 16.725L8.95 14.925L8.8 14.7C8.275 13.875 8.05 12.975 8.05 12.075C8.05 9.375 10.3 7.125 13 7.125C14.35 7.125 15.55 7.65 16.525 8.55C17.5 9.525 17.95 10.725 17.95 12.075C17.95 14.7 15.775 16.95 13 16.95ZM15.7 13.2C15.55 13.125 14.8 12.75 14.65 12.75C14.5 12.675 14.425 12.675 14.35 12.825C14.275 12.975 13.975 13.275 13.9 13.425C13.825 13.5 13.75 13.5 13.6 13.5C13.45 13.425 13 13.275 12.4 12.75C11.95 12.375 11.65 11.85 11.575 11.7C11.5 11.55 11.575 11.475 11.65 11.4C11.725 11.325 11.8 11.25 11.875 11.175C11.95 11.1 11.95 11.025 12.025 10.95C12.1 10.875 12.025 10.8 12.025 10.725C12.025 10.65 11.725 9.9 11.575 9.6C11.5 9.375 11.35 9.375 11.275 9.375C11.2 9.375 11.125 9.375 10.975 9.375C10.9 9.375 10.75 9.375 10.6 9.525C10.45 9.675 10.075 10.05 10.075 10.8C10.075 11.55 10.6 12.225 10.675 12.375C10.75 12.45 11.725 14.025 13.225 14.625C14.5 15.15 14.725 15 15.025 15C15.325 15 15.925 14.625 16 14.325C16.15 13.95 16.15 13.65 16.075 13.65C16 13.275 15.85 13.275 15.7 13.2Z" fill="white"/>
</svg>
