<?xml version="1.0" encoding="utf-8"?><svg viewBox="0 0 137 36" xmlns="http://www.w3.org/2000/svg" xmlns:xlink="http://www.w3.org/1999/xlink"><style>:root>svg{display:none}:root>svg:target{display:block}</style><svg viewBox="0 0 46 8" id="icon-arrow" xmlns="http://www.w3.org/2000/svg"><path d="M.646 3.646a.5.5 0 0 0 0 .708l3.182 3.182a.5.5 0 1 0 .708-.708L1.707 4l2.829-2.828a.5.5 0 1 0-.708-.708L.646 3.646ZM46 3.5H1v1h45v-1Z"/></svg><svg fill="none" viewBox="0 0 24 24" id="icon-arrow-up-left-contained" xmlns="http://www.w3.org/2000/svg"><path d="M9.589 7.502a1 1 0 0 0-.181 1.992l.181-1.992Zm5.41 1.496.995-.09a1 1 0 0 0-.905-.906l-.09.996Zm-.496 5.59a1 1 0 1 0 1.991-.18l-1.991.18Zm-6.212-.297a1 1 0 1 0 1.415 1.415L8.29 14.29Zm1.117-4.797 5.5.5.181-1.992-5.5-.5-.181 1.992Zm4.595-.405.5 5.5 1.991-.181-.5-5.5-1.991.18Zm.288-.798-6 6 1.415 1.415 6-6L14.29 8.29Zm6.307 3.707a8.6 8.6 0 0 1-8.6 8.6v2c5.855 0 10.6-4.745 10.6-10.6h-2Zm-8.6 8.6a8.6 8.6 0 0 1-8.6-8.6h-2c0 5.855 4.746 10.6 10.6 10.6v-2Zm-8.6-8.6a8.6 8.6 0 0 1 8.6-8.6v-2c-5.854 0-10.6 4.746-10.6 10.6h2Zm8.6-8.6a8.6 8.6 0 0 1 8.6 8.6h2c0-5.854-4.745-10.6-10.6-10.6v2Z" fill="#fff"/></svg><svg fill="none" viewBox="0 0 46 8" id="icon-backhome-arrow" xmlns="http://www.w3.org/2000/svg"><path d="M.646 3.646a.5.5 0 0 0 0 .708l3.182 3.182a.5.5 0 1 0 .708-.708L1.707 4l2.829-2.828a.5.5 0 1 0-.708-.708L.646 3.646ZM46 3.5H1v1h45v-1Z" fill="#3F2AFF"/></svg><svg fill="none" viewBox="0 0 34 34" id="icon-close-modal" xmlns="http://www.w3.org/2000/svg"><circle cx="17" cy="17" r="17" fill="gray"/><path fill="#fff" d="M10.555 9.35 24.98 23.775l-1.202 1.202L9.353 10.552z"/><path fill="#fff" d="M9.508 23.775 23.933 9.35l1.202 1.202L10.71 24.977z"/></svg><svg fill="none" viewBox="0 0 36 36" id="icon-first-emoji" xmlns="http://www.w3.org/2000/svg"><path d="M33.824 16c0 8.834-7.166 16-16 16-8.836 0-16-7.166-16-16 0-8.836 7.164-16 16-16 8.834 0 16 7.164 16 16Z" fill="#FFCC4D"/><path d="M25.685 16.129a.372.372 0 0 0-.535-.03c-.033.03-3.303 2.9-7.326 2.9-4.013 0-7.293-2.87-7.326-2.9a.374.374 0 0 0-.535.03.57.57 0 0 0-.08.628c.109.215 2.71 5.243 7.94 5.243 5.232 0 7.834-5.028 7.94-5.243a.57.57 0 0 0-.078-.628Z" fill="#664500"/><path d="m13.216 23.153-1.54-2.219s-.542-.867-1.41-.325c-.867.541-.324 1.41-.324 1.41l1.758 3.38s.144.767-.918-.092c-.463-.374-.197-.163-.197-.163l-.44-.36-5.491-4.509s-.71-.748-1.36.042c-.647.791.224 1.341.224 1.341l5.193 4.266c-.12.12-.482.534-.6.663l-5.557-4.56s-.71-.749-1.358.041c-.65.791.222 1.341.222 1.341l5.555 4.562c-.103.14-.363.476-.46.614l-4.791-3.934s-.71-.748-1.358.042c-.651.791.222 1.342.222 1.342L5.68 30.22c-.064.178-.363.646-.41.82l-3.672-3.012s-.71-.752-1.357.041c-.65.791.222 1.341.222 1.341l5.93 4.868.395.326a6.14 6.14 0 0 0 8.4-8.918c-.73-.782-1.36-1.653-1.972-2.532Zm22.19 4.916c-.648-.793-1.357-.04-1.357-.04l-3.672 3.011c-.047-.174-.346-.643-.41-.82l5.094-4.184s.873-.55.223-1.342c-.648-.79-1.358-.042-1.358-.042l-4.792 3.934c-.096-.139-.357-.475-.46-.614l5.556-4.562s.873-.55.223-1.34c-.648-.79-1.357-.042-1.357-.042l-5.558 4.56c-.117-.129-.48-.543-.6-.663l5.193-4.266s.87-.55.223-1.34c-.65-.79-1.36-.043-1.36-.043l-5.49 4.508-.44.361s.99-.84-.196.163c-1.188 1.004-.918.091-.918.091l1.758-3.38s.543-.868-.324-1.409c-.87-.542-1.411.325-1.411.325l-1.538 2.22c-.613.878-1.244 1.75-1.974 2.532a6.14 6.14 0 0 0 8.4 8.918l.397-.326 5.93-4.868c-.005 0 .867-.55.218-1.342Z" fill="#F4900C"/><path d="M27.498 10.983C27.448 10.861 26.213 8 23.678 8s-3.769 2.861-3.82 2.983a.468.468 0 0 0 .123.536.414.414 0 0 0 .523.012c.01-.009 1.081-.816 3.173-.816 2.08 0 3.15.797 3.174.816a.412.412 0 0 0 .522-.01.468.468 0 0 0 .125-.538Zm-11 0C16.446 10.861 15.213 8 12.678 8s-3.769 2.861-3.82 2.983a.468.468 0 0 0 .123.536c.15.128.366.132.523.012.011-.009 1.081-.816 3.173-.816 2.08 0 3.15.797 3.173.816a.414.414 0 0 0 .255.089.417.417 0 0 0 .267-.099.469.469 0 0 0 .126-.538Z" fill="#664500"/><path d="M11.006 25.479s-2.593 3.314.484 7.46c.212.285.75.145.52-.188-.25-.364-2.75-3.896-.4-7.057 0 0-.38-.047-.604-.215Zm13.583.098s2.594 3.313-.484 7.46c-.212.285-.75.145-.521-.188.25-.364 2.75-3.896.4-7.057-.001 0 .38-.047.605-.216Z" fill="#B55005"/></svg><svg fill="none" viewBox="0 0 137 30" id="icon-logo" xmlns="http://www.w3.org/2000/svg"><g clip-path="url(#fa)"><path d="M137 29.056h-3.741l-6.392-7.492-6.361 7.492h-3.719l8.214-9.678-7.768-9.101h3.741l5.888 6.903 5.859-6.903h3.72l-7.714 9.09L137 29.054v.002ZM105.364 30c-5.803 0-10.506-4.628-10.506-10.335 0-5.706 4.705-10.33 10.507-10.33s10.505 4.625 10.505 10.331c0 5.708-4.704 10.334-10.508 10.334h.002Zm.021-17.874c-3.096 0-5.885 1.832-7.07 4.644a7.43 7.43 0 0 0 1.659 8.2 7.75 7.75 0 0 0 8.337 1.63 7.542 7.542 0 0 0 3.424-2.758 7.508 7.508 0 0 0 1.298-4.194c0-4.155-3.425-7.522-7.648-7.522ZM81.002 29.52c-5.88 0-7.644-1.41-7.644-1.41V.86h2.867v9.88a10.9 10.9 0 0 1 4.777-.96c5.805 0 10.511 4.158 10.511 9.861 0 5.705-4.71 9.879-10.514 9.879h.003Zm0-16.916a8.616 8.616 0 0 0-4.777 1.523v11.634a9.801 9.801 0 0 0 4.777.94c4.221 0 7.645-2.9 7.645-7.048 0-4.147-3.427-7.05-7.648-7.05l.003.002ZM63.802.858h2.867V29.05h-2.866V.858Zm-9.554 0h2.866V29.05h-2.866V.858ZM46.03 5.055a2.371 2.371 0 0 1-1.676-.68 2.356 2.356 0 0 1-.703-1.66c0-1.29 1.066-2.338 2.379-2.338 1.314 0 2.378 1.048 2.378 2.34 0 .619-.25 1.215-.697 1.654a2.398 2.398 0 0 1-1.681.684ZM36.569 29.05l-10.027-9.86 9.076-8.935h4.053l-9.078 8.934L40.62 29.05h-4.051Zm-12.901 0V.858h2.866V29.05h-2.866Zm-4.54-7.668c0 4.712-3.816 8.13-9.877 8.13A13.304 13.304 0 0 1 0 25.427l2.026-2.206c1.897 1.776 4.13 3.503 7.186 3.503 3.395 0 7.055-1.872 7.055-5.235 0-2.791-2.257-4.614-7-6.051-5.404-1.622-8.147-3.825-8.147-7.971C1.12 3.366 4.65 0 9.677 0c3.757 0 6.107 1.575 8.393 3.585L16.08 5.763C14.073 4.014 12.16 2.83 9.816 2.83c-2.907 0-5.78 1.846-5.78 4.5 0 2.406 1.406 3.94 6.372 5.434 4.546 1.377 8.72 3.51 8.72 8.619Zm28.438 7.668h-2.868V10.255h2.867V29.05h.001Z" fill="#333"/></g><defs><clipPath id="fa"><path fill="#fff" d="M0 0h137v30H0z"/></clipPath></defs></svg><svg fill="none" viewBox="0 0 22 22" id="icon-second-emoji" xmlns="http://www.w3.org/2000/svg"><path d="M22 11c0 6.075-4.925 11-11 11-6.074 0-11-4.925-11-11C0 4.926 4.926 0 11 0c6.075 0 11 4.926 11 11Z" fill="#FFCC4D"/><path d="M9.446 9.664C9.409 9.582 8.53 7.65 6.722 7.65c-1.807 0-2.687 1.932-2.724 2.014a.305.305 0 0 0 .461.37c.008-.005.771-.551 2.263-.551 1.483 0 2.245.538 2.262.55a.303.303 0 0 0 .373-.005.305.305 0 0 0 .089-.364Z" fill="#66471B"/><path d="M18.944 8.25a3.972 3.972 0 1 1-7.944 0 3.972 3.972 0 0 1 7.944 0Z" fill="#F5F8FA"/><path d="M14.972 9.778a1.528 1.528 0 1 0 0-3.056 1.528 1.528 0 0 0 0 3.056Z" fill="#292F33"/><path d="M4.278 12.993c0 2.423 2.809 5.5 6.722 5.5 3.914 0 6.722-3.055 6.722-5.5 0 0-6.314 1.684-13.444 0Z" fill="#66471B"/><path d="m11.333 14.425-.667-.003c-1.965-.045-3.333-.364-3.333-.364v4.254c0 1.833 1.223 3.666 3.667 3.666s3.667-1.833 3.667-3.666v-4.229c-1.175.24-2.315.331-3.334.342Z" fill="#E8596E"/><path d="M11 19.46c.183 0 .332-.15.332-.333v-4.702l-.666-.003v4.705c0 .184.15.333.333.333Z" fill="#DD2F45"/></svg><svg viewBox="0 0 25 25" id="icon-telegram" xmlns="http://www.w3.org/2000/svg"><path d="M0 12.5C0 19.404 5.596 25 12.5 25S25 19.404 25 12.5 19.404 0 12.5 0 0 5.596 0 12.5Z"/><path d="M5.825 12.673c3.221-1.764 5.37-2.927 6.444-3.489 3.069-1.604 3.706-1.883 4.122-1.892a.624.624 0 0 1 .428.162c.112.114.143.268.157.376.015.108.033.354.019.547-.167 2.196-.886 7.525-1.252 9.985-.155 1.04-.46 1.39-.755 1.424-.642.074-1.13-.533-1.75-1.045-.973-.802-1.523-1.3-2.467-2.082-1.09-.904-.384-1.4.238-2.212.163-.213 2.99-3.445 3.045-3.738.007-.037.013-.174-.052-.246-.064-.072-.16-.047-.228-.028-.098.028-1.651 1.319-4.661 3.872-.441.381-.84.567-1.198.557-.395-.01-1.154-.28-1.718-.511-.692-.283-1.242-.432-1.194-.912.025-.25.299-.506.822-.768Z" fill="#fff"/></svg><svg viewBox="0 0 25 26" id="icon-vk" xmlns="http://www.w3.org/2000/svg"><path d="M25 12.548C25 5.618 19.404 0 12.5 0S0 5.618 0 12.548s5.596 12.548 12.5 12.548S25 19.48 25 12.548Z"/><path d="M4 12.16c0-3.848 0-5.769 1.19-6.97C6.397 4 8.318 4 12.16 4h.68c3.848 0 5.769 0 6.97 1.19C21 6.397 21 8.318 21 12.16v.68c0 3.848 0 5.769-1.19 6.97C18.603 21 16.682 21 12.84 21h-.68c-3.848 0-5.769 0-6.97-1.19C4 18.603 4 16.682 4 12.84v-.68Z"/><path d="M12.989 17C9.231 17 7.088 14.002 7 9.006h1.89c.06 3.664 1.445 5.214 2.544 5.534V9.006h1.775v3.158c1.082-.134 2.225-1.575 2.61-3.164h1.769a6.662 6.662 0 0 1-.847 2.288 5.666 5.666 0 0 1-1.56 1.702 5.66 5.66 0 0 1 1.778 1.653c.486.691.84 1.494 1.041 2.357h-1.95c-.418-1.518-1.462-2.697-2.841-2.857V17h-.22Z" fill="#fff"/></svg><svg viewBox="0 0 25 26" id="icon-whatsapp" xmlns="http://www.w3.org/2000/svg"><path d="M0 12.548c0 6.93 5.596 12.548 12.5 12.548S25 19.48 25 12.548C25 5.618 19.404 0 12.5 0S0 5.618 0 12.548Z"/><path fill-rule="evenodd" clip-rule="evenodd" d="M17.2 7.725A5.899 5.899 0 0 0 13 6c-3.3 0-6 2.7-6 6 0 1.05.3 2.1.825 3L7 18l3.15-.825c.9.45 1.875.75 2.85.75 3.3 0 6-2.7 6-6 0-1.575-.675-3.075-1.8-4.2ZM13 16.95c-.9 0-1.8-.225-2.55-.675l-.15-.075-1.875.525.525-1.8-.15-.225a4.825 4.825 0 0 1-.75-2.625c0-2.7 2.25-4.95 4.95-4.95 1.35 0 2.55.525 3.525 1.425.975.975 1.425 2.175 1.425 3.525 0 2.625-2.175 4.875-4.95 4.875Zm2.7-3.75c-.15-.075-.9-.45-1.05-.45-.15-.075-.225-.075-.3.075-.075.15-.375.45-.45.6-.075.075-.15.075-.3.075-.15-.075-.6-.225-1.2-.75-.45-.375-.75-.9-.825-1.05-.075-.15 0-.225.075-.3l.225-.225c.075-.075.075-.15.15-.225.075-.075 0-.15 0-.225 0-.075-.3-.825-.45-1.125-.075-.225-.225-.225-.3-.225h-.3c-.075 0-.225 0-.375.15s-.525.525-.525 1.275c0 .75.525 1.425.6 1.575.075.075 1.05 1.65 2.55 2.25 1.275.525 1.5.375 1.8.375.3 0 .9-.375.975-.675.15-.375.15-.675.075-.675-.075-.375-.225-.375-.375-.45Z" fill="#fff"/></svg></svg>